<svg version="1.2" baseProfile="tiny-ps" xmlns="http://www.w3.org/2000/svg" viewBox="0 0 32 33" width="32" height="33">
	<title>Toast</title>
	<defs>
		<clipPath clipPathUnits="userSpaceOnUse" id="cp1">
			<path d="m-650-597h768v1080h-768z" />
		</clipPath>
	</defs>
	<style>
		tspan { white-space:pre }
		.s0 { fill: #ffffff } 
	</style>
	<g id="Toast" clip-path="url(#cp1)">
		<g id="close">
			<path id="Path 3" class="s0" d="m31.41 28.58c0.78 0.78 0.78 2.05 0 2.83c-0.39 0.39-0.9 0.59-1.41 0.59c-0.51 0-1.02-0.2-1.41-0.59l-12.58-12.58l-12.58 12.58c-0.39 0.39-0.9 0.59-1.41 0.59c-0.51 0-1.02-0.2-1.41-0.59c-0.78-0.78-0.78-2.05 0-2.83l12.58-12.58l-12.58-12.58c-0.78-0.78-0.78-2.05 0-2.83c0.78-0.78 2.05-0.78 2.83 0l12.58 12.58l12.58-12.58c0.78-0.78 2.05-0.78 2.83 0c0.78 0.78 0.78 2.05 0 2.83l-12.58 12.58l12.58 12.58z" />
		</g>
	</g>
</svg>