<svg version="1.2" baseProfile="tiny-ps" xmlns="http://www.w3.org/2000/svg" viewBox="0 0 65 65" width="65" height="65">
	<title>Toast</title>
	<defs>
		<clipPath clipPathUnits="userSpaceOnUse" id="cp1">
			<path d="m-73-629h768v1080h-768z" />
		</clipPath>
	</defs>
	<style>
		tspan { white-space:pre }
		.s0 { fill: #ffffff } 
	</style>
	<g id="Toast" clip-path="url(#cp1)">
		<g id="04-search">
			<path id="Path 7" fill-rule="evenodd" class="s0" d="m60.19 64l-11.48-11.48c-12.2 10.16-30.23 8.93-40.94-2.8c-10.7-11.73-10.29-29.8 0.93-41.02c11.23-11.23 29.3-11.64 41.02-0.93c11.73 10.7 12.96 28.74 2.8 40.94l11.48 11.48l-3.81 3.82zm-30.45-10c13.4 0 24.27-10.87 24.27-24.27c0-13.4-10.87-24.27-24.27-24.27c-13.4 0-24.27 10.87-24.27 24.27c0.02 13.4 10.87 24.26 24.27 24.27z" />
			<path id="Path 8" fill-rule="evenodd" class="s0" d="m48.62 45.32l-4.89 2.45l-1.98-3.96h-1.8c-2.5 3.35-6.14 5.47-10.18 5.47c-4.04 0-7.67-2.11-10.18-5.47h-1.8l-1.98 3.96l-4.89-2.45l2.73-5.47c0.46-0.93 1.41-1.51 2.45-1.51h0.78c-0.26-0.9-0.46-1.81-0.59-2.73h-5.66v-5.47l5.66 0c0.13-0.92 0.33-1.84 0.59-2.73h-0.78c-1.04 0-1.98-0.59-2.45-1.51l-2.73-5.47l4.89-2.45l1.98 3.96h1.8c0.72-0.97 1.56-1.85 2.49-2.62c-1.27-3.41-0.14-7.25 2.78-9.42c2.91-2.18 6.91-2.18 9.82 0c2.91 2.18 4.04 6.02 2.78 9.42c0.93 0.77 1.77 1.65 2.49 2.62h1.8l1.98-3.96l4.89 2.45l-2.73 5.47c-0.46 0.93-1.41 1.51-2.45 1.51h-0.78c0.26 0.9 0.46 1.81 0.59 2.73h5.66v5.47h-5.66c-0.13 0.92-0.33 1.84-0.59 2.73h0.78c1.04 0 1.98 0.59 2.45 1.51l2.73 5.47zm-21.56-28.52c1.78-0.43 3.64-0.43 5.42 0c0.01-0.11 0.02-0.22 0.02-0.32c0-1.51-1.22-2.73-2.73-2.73c-1.51 0-2.73 1.22-2.73 2.73c0 0.11 0.01 0.22 0.03 0.32zm10.91 16.08c0-6.03-3.68-10.94-8.2-10.94c-4.52 0-8.2 4.91-8.2 10.94c0 6.03 3.68 10.94 8.2 10.94c4.52 0 8.2-4.91 8.2-10.94z" />
		</g>
	</g>
</svg>