<svg version="1.2" baseProfile="tiny-ps" xmlns="http://www.w3.org/2000/svg" viewBox="0 0 64 64" width="64" height="64">
	<title>Toast</title>
	<defs>
		<clipPath clipPathUnits="userSpaceOnUse" id="cp1">
			<path d="m-75-127h768v1080h-768z" />
		</clipPath>
	</defs>
	<style>
		tspan { white-space:pre }
		.s0 { fill: #ffffff } 
	</style>
	<g id="Toast" clip-path="url(#cp1)">
		<g id="information">
			<g id="Group 2">
				<g id="Group 1">
					<path id="Ellipse 1" class="s0" d="m32 50.59c-1.9 0-3.44-1.54-3.44-3.44c0-1.9 1.54-3.44 3.44-3.44c1.9 0 3.44 1.54 3.44 3.44c0 1.9-1.54 3.44-3.44 3.44z" />
					<path id="Path 1" fill-rule="evenodd" class="s0" d="m64 32c0 17.69-14.31 32-32 32c-17.69 0-32-14.31-32-32c0-17.69 14.31-32 32-32c17.69 0 32 14.31 32 32zm-5 0c0-14.92-12.08-27-27-27c-14.92 0-27 12.08-27 27c0 14.92 12.08 27 27 27c14.92 0 27-12.08 27-27z" />
					<path id="Path 2" class="s0" d="m43.02 25.94c0 5.12-3.52 9.44-8.26 10.67v4.48c0 1.52-1.23 2.75-2.75 2.75c-1.52 0-2.75-1.23-2.75-2.75v-6.88c0-1.52 1.23-2.75 2.75-2.75c3.04 0 5.51-2.47 5.51-5.51c0-3.04-2.47-5.51-5.51-5.51c-3.04 0-5.51 2.47-5.51 5.51c0 1.52-1.23 2.75-2.75 2.75c-1.52 0-2.75-1.23-2.75-2.75c0-6.07 4.94-11.02 11.02-11.02c6.07 0 11.02 4.94 11.02 11.02z" />
				</g>
			</g>
		</g>
	</g>
</svg>