<svg version="1.2" baseProfile="tiny-ps" xmlns="http://www.w3.org/2000/svg" viewBox="0 0 64 64" width="64" height="64">
	<title>Toast</title>
	<defs>
		<clipPath clipPathUnits="userSpaceOnUse" id="cp1">
			<path d="m-75-377h768v1080h-768z" />
		</clipPath>
	</defs>
	<style>
		tspan { white-space:pre }
		.s0 { fill: #000000 } 
	</style>
	<g id="Toast" clip-path="url(#cp1)">
		<g id="warning">
			<g id="Group 3">
				<path id="Path 4" class="s0" d="m35.51 48.66c0.09 1.87-1.63 3.51-3.51 3.51c-1.96 0-3.6-1.64-3.6-3.6c0-1.96 1.64-3.6 3.6-3.6c1.97 0 3.6 1.63 3.51 3.68z" />
				<path id="Path 5" fill-rule="evenodd" class="s0" d="m52.55 64h-41.15c-4.1 0-7.78-2.32-9.83-6.17c-2.08-3.9-2.09-8.58-0.04-12.51l20.63-39.07c2.04-3.9 5.72-6.25 9.85-6.25c4.13 0 7.81 2.33 9.85 6.26l20.6 39.03c2.05 3.89 2.04 8.53-0.03 12.43c-2.08 3.93-5.78 6.27-9.89 6.27zm5.46-15.87l-20.62-39.06c-1.12-2.14-3.13-3.43-5.38-3.43c-2.26 0-4.26 1.27-5.38 3.41l-20.63 39.06c-1.13 2.16-1.12 4.72 0.01 6.86c1.12 2.12 3.13 3.37 5.37 3.37h41.15c2.26 0 4.29-1.28 5.43-3.44c1.13-2.14 1.14-4.68 0.04-6.78z" />
				<path id="Path 6" class="s0" d="m35.27 21.75c0.24 0.58 0.33 1.15 0.33 1.8c-0.09 1.8-0.24 3.6-0.33 5.4c-0.16 2.78-0.33 5.56-0.49 8.33c-0.09 0.91-0.09 1.73-0.09 2.62c-0.07 1.48-1.22 2.62-2.69 2.62c-1.47 0-2.6-1.06-2.69-2.53c-0.24-4.33-0.49-8.58-0.73-12.91c-0.09-1.14-0.16-2.29-0.24-3.43c0-1.89 1.06-3.44 2.78-3.93c1.71-0.4 3.43 0.42 4.16 2.03z" />
			</g>
		</g>
	</g>
</svg>